# 3ds Max Wavefront OBJ Exporter v0.97b - (c)2007 guruware
# File Created: 18.03.2020 13:27:04

mtllib coin.mtl

#
# object Cylinder005
#

v  12.0845 0.0000 1.9142
v  12.1682 0.0000 -1.2787
v  12.1682 3.2513 -1.2787
v  12.0845 3.2513 1.9142
v  11.4226 0.0000 -4.3845
v  11.4226 3.2513 -4.3845
v  9.8986 0.0000 -7.1915
v  9.8986 3.2513 -7.1915
v  7.7000 0.0000 -9.5084
v  7.7000 3.2513 -9.5084
v  4.9767 0.0000 -11.1773
v  4.9767 3.2513 -11.1773
v  1.9142 0.0000 -12.0845
v  1.9142 3.2513 -12.0845
v  -1.2787 0.0000 -12.1682
v  -1.2787 3.2513 -12.1682
v  -4.3845 0.0000 -11.4226
v  -4.3845 3.2513 -11.4226
v  -7.1915 0.0000 -9.8986
v  -7.1915 3.2513 -9.8986
v  -9.5084 0.0000 -7.7000
v  -9.5084 3.2513 -7.7000
v  -11.1773 0.0000 -4.9767
v  -11.1773 3.2513 -4.9767
v  -12.0845 0.0000 -1.9142
v  -12.0845 3.2513 -1.9142
v  -12.1682 0.0000 1.2787
v  -12.1682 3.2513 1.2787
v  -11.4226 0.0000 4.3845
v  -11.4226 3.2513 4.3845
v  -9.8986 0.0000 7.1915
v  -9.8986 3.2513 7.1915
v  -7.7000 0.0000 9.5084
v  -7.7000 3.2513 9.5084
v  -4.9767 0.0000 11.1773
v  -4.9767 3.2513 11.1773
v  -1.9142 0.0000 12.0845
v  -1.9142 3.2513 12.0845
v  1.2787 0.0000 12.1682
v  1.2787 3.2513 12.1682
v  4.3845 0.0000 11.4226
v  4.3845 3.2513 11.4226
v  7.1915 0.0000 9.8986
v  7.1915 3.2513 9.8986
v  9.5084 0.0000 7.7000
v  9.5084 3.2513 7.7000
v  11.1773 0.0000 4.9767
v  11.1773 3.2513 4.9767
# 48 vertices

vn 0.7343 -0.6789 0.0000
vn 0.7092 -0.6789 -0.1900
vn 0.7092 0.6789 -0.1900
vn 0.7343 0.6789 0.0000
vn 0.6359 -0.6789 -0.3671
vn 0.6359 0.6789 -0.3671
vn 0.5192 -0.6789 -0.5192
vn 0.5192 0.6789 -0.5192
vn 0.3671 -0.6789 -0.6359
vn 0.3671 0.6789 -0.6359
vn 0.1900 -0.6789 -0.7092
vn 0.1900 0.6789 -0.7092
vn 0.0000 -0.6789 -0.7343
vn 0.0000 0.6789 -0.7343
vn -0.1900 -0.6789 -0.7092
vn -0.1900 0.6789 -0.7092
vn -0.3671 -0.6789 -0.6359
vn -0.3671 0.6789 -0.6359
vn -0.5192 -0.6789 -0.5192
vn -0.5192 0.6789 -0.5192
vn -0.6359 -0.6789 -0.3671
vn -0.6359 0.6789 -0.3671
vn -0.7092 -0.6789 -0.1900
vn -0.7092 0.6789 -0.1900
vn -0.7342 -0.6789 -0.0000
vn -0.7342 0.6789 -0.0000
vn -0.7092 -0.6790 0.1900
vn -0.7092 0.6790 0.1900
vn -0.6358 -0.6790 0.3671
vn -0.6358 0.6790 0.3671
vn -0.5192 -0.6789 0.5192
vn -0.5192 0.6789 0.5192
vn -0.3671 -0.6789 0.6359
vn -0.3671 0.6789 0.6359
vn -0.1900 -0.6789 0.7092
vn -0.1900 0.6789 0.7092
vn -0.0000 -0.6790 0.7341
vn -0.0000 0.6790 0.7341
vn 0.1900 -0.6789 0.7092
vn 0.1900 0.6789 0.7092
vn 0.3671 -0.6789 0.6359
vn 0.3671 0.6789 0.6359
vn 0.5192 -0.6789 0.5192
vn 0.5192 0.6789 0.5192
vn 0.6359 -0.6789 0.3671
vn 0.6359 0.6789 0.3671
vn 0.7092 -0.6789 0.1900
vn 0.7092 0.6789 0.1900
# 48 vertex normals

vt 0.7227 0.2318 0.0000
vt 0.7227 0.2909 0.0000
vt 0.6247 0.2909 0.0000
vt 0.6247 0.2318 0.0000
vt 0.7227 0.3460 0.0000
vt 0.6247 0.3460 0.0000
vt 0.7227 0.3933 0.0000
vt 0.6247 0.3933 0.0000
vt 0.9017 0.3916 0.0000
vt 0.9017 0.4390 0.0000
vt 0.8038 0.4390 0.0000
vt 0.8038 0.3916 0.0000
vt 0.9017 0.4941 0.0000
vt 0.8038 0.4941 0.0000
vt 0.9017 0.5532 0.0000
vt 0.8038 0.5532 0.0000
vt 0.9017 0.6124 0.0000
vt 0.8038 0.6124 0.0000
vt 0.9017 0.6675 0.0000
vt 0.8038 0.6675 0.0000
vt 0.9017 0.7148 0.0000
vt 0.8038 0.7148 0.0000
vt 0.9017 0.0677 0.0000
vt 0.9017 0.1151 0.0000
vt 0.8038 0.1151 0.0000
vt 0.8038 0.0677 0.0000
vt 0.9017 0.1702 0.0000
vt 0.8038 0.1702 0.0000
vt 0.9017 0.2293 0.0000
vt 0.8038 0.2293 0.0000
vt 0.9017 0.2885 0.0000
vt 0.8038 0.2885 0.0000
vt 0.9017 0.3436 0.0000
vt 0.8038 0.3436 0.0000
vt 0.9017 0.3909 0.0000
vt 0.8038 0.3909 0.0000
vt 0.7227 0.3941 0.0000
vt 0.7227 0.4414 0.0000
vt 0.6247 0.4414 0.0000
vt 0.6247 0.3941 0.0000
vt 0.7227 0.4965 0.0000
vt 0.6247 0.4965 0.0000
vt 0.7227 0.5557 0.0000
vt 0.6247 0.5557 0.0000
vt 0.7227 0.6148 0.0000
vt 0.6247 0.6148 0.0000
vt 0.7227 0.6699 0.0000
vt 0.6247 0.6699 0.0000
vt 0.7227 0.7173 0.0000
vt 0.6247 0.7173 0.0000
vt 0.7227 0.0702 0.0000
vt 0.7227 0.1175 0.0000
vt 0.6247 0.1175 0.0000
vt 0.6247 0.0702 0.0000
vt 0.7227 0.1726 0.0000
vt 0.6247 0.1726 0.0000
vt 0.0671 0.1664 0.0000
vt 0.0670 0.3413 0.0000
vt 0.0516 0.2836 0.0000
vt 0.0516 0.2240 0.0000
vt 0.5128 0.7109 0.0000
vt 0.5128 0.7706 0.0000
vt 0.4973 0.8282 0.0000
vt 0.4973 0.6533 0.0000
vt 0.4675 0.8799 0.0000
vt 0.4675 0.6016 0.0000
vt 0.4253 0.9221 0.0000
vt 0.4253 0.5595 0.0000
vt 0.3737 0.9519 0.0000
vt 0.3736 0.5296 0.0000
vt 0.3161 0.9673 0.0000
vt 0.3160 0.5142 0.0000
vt 0.2564 0.9673 0.0000
vt 0.2563 0.5142 0.0000
vt 0.1988 0.9519 0.0000
vt 0.1987 0.5296 0.0000
vt 0.1471 0.9221 0.0000
vt 0.1471 0.5595 0.0000
vt 0.1049 0.8799 0.0000
vt 0.1049 0.6017 0.0000
vt 0.0751 0.8283 0.0000
vt 0.0751 0.6533 0.0000
vt 0.0596 0.7706 0.0000
vt 0.0596 0.7110 0.0000
vt 0.0969 0.1147 0.0000
vt 0.0968 0.3929 0.0000
vt 0.1391 0.0725 0.0000
vt 0.1390 0.4351 0.0000
vt 0.1908 0.0427 0.0000
vt 0.1907 0.4650 0.0000
vt 0.2484 0.0273 0.0000
vt 0.2483 0.4804 0.0000
vt 0.3080 0.0273 0.0000
vt 0.3079 0.4805 0.0000
vt 0.3657 0.0428 0.0000
vt 0.3656 0.4650 0.0000
vt 0.4173 0.0726 0.0000
vt 0.4172 0.4352 0.0000
vt 0.4595 0.1148 0.0000
vt 0.4594 0.3930 0.0000
vt 0.4893 0.1665 0.0000
vt 0.4893 0.3414 0.0000
vt 0.5047 0.2241 0.0000
vt 0.5047 0.2838 0.0000
# 104 texture coords

o Cylinder005
g Cylinder005
usemtl Material__33
s 8
f 1/1/1 2/2/2 3/3/3 4/4/4 
f 2/2/2 5/5/5 6/6/6 3/3/3 
f 5/5/5 7/7/7 8/8/8 6/6/6 
f 7/9/7 9/10/9 10/11/10 8/12/8 
f 9/10/9 11/13/11 12/14/12 10/11/10 
f 11/13/11 13/15/13 14/16/14 12/14/12 
f 13/15/13 15/17/15 16/18/16 14/16/14 
f 15/17/15 17/19/17 18/20/18 16/18/16 
f 17/19/17 19/21/19 20/22/20 18/20/18 
f 19/23/19 21/24/21 22/25/22 20/26/20 
f 21/24/21 23/27/23 24/28/24 22/25/22 
f 23/27/23 25/29/25 26/30/26 24/28/24 
f 25/29/25 27/31/27 28/32/28 26/30/26 
f 27/31/27 29/33/29 30/34/30 28/32/28 
f 29/33/29 31/35/31 32/36/32 30/34/30 
f 31/37/31 33/38/33 34/39/34 32/40/32 
f 33/38/33 35/41/35 36/42/36 34/39/34 
f 35/41/35 37/43/37 38/44/38 36/42/36 
f 37/43/37 39/45/39 40/46/40 38/44/38 
f 39/45/39 41/47/41 42/48/42 40/46/40 
f 41/47/41 43/49/43 44/50/44 42/48/42 
f 43/51/43 45/52/45 46/53/46 44/54/44 
f 45/52/45 47/55/47 48/56/48 46/53/46 
f 47/55/47 1/1/1 4/4/4 48/56/48 
s 1
f 47/57/47 5/58/5 2/59/2 1/60/1 
f 4/61/4 3/62/3 6/63/6 48/64/48 
f 6/63/6 8/65/8 46/66/46 48/64/48 
f 8/65/8 10/67/10 44/68/44 46/66/46 
f 10/67/10 12/69/12 42/70/42 44/68/44 
f 12/69/12 14/71/14 40/72/40 42/70/42 
f 14/71/14 16/73/16 38/74/38 40/72/40 
f 16/73/16 18/75/18 36/76/36 38/74/38 
f 18/75/18 20/77/20 34/78/34 36/76/36 
f 20/77/20 22/79/22 32/80/32 34/78/34 
f 22/79/22 24/81/24 30/82/30 32/80/32 
f 24/81/24 26/83/26 28/84/28 30/82/30 
f 47/57/47 45/85/45 7/86/7 5/58/5 
f 45/85/45 43/87/43 9/88/9 7/86/7 
f 43/87/43 41/89/41 11/90/11 9/88/9 
f 41/89/41 39/91/39 13/92/13 11/90/11 
f 39/91/39 37/93/37 15/94/15 13/92/13 
f 37/93/37 35/95/35 17/96/17 15/94/15 
f 35/95/35 33/97/33 19/98/19 17/96/17 
f 33/97/33 31/99/31 21/100/21 19/98/19 
f 31/99/31 29/101/29 23/102/23 21/100/21 
f 29/101/29 27/103/27 25/104/25 23/102/23 
# 46 polygons

